<?xml version="1.0" encoding="utf-8"?>
<!-- Generator: Adobe Illustrator 16.0.0, SVG Export Plug-In . SVG Version: 6.00 Build 0)  -->
<!DOCTYPE svg PUBLIC "-//W3C//DTD SVG 1.1//EN" "http://www.w3.org/Graphics/SVG/1.1/DTD/svg11.dtd">
<svg version="1.1" id="Layer_1" xmlns="http://www.w3.org/2000/svg" xmlns:xlink="http://www.w3.org/1999/xlink" x="0px" y="0px"
	 width="640px" height="640px" viewBox="0 0 640 640" enable-background="new 0 0 640 640" xml:space="preserve">
<g id="Page-1">
	<g id="A4">
		<g id="Alert" transform="translate(10.000000, 90.000000)">
			
				<polygon id="Stroke-1" fill="none" stroke="#BFBFBF" stroke-width="1.5" stroke-linecap="round" stroke-linejoin="round" points="
				20,16.951 0,16.951 10,0.405 			"/>
			<path id="Fill-2" fill="#BFBFBF" d="M10,12.339c0.518,0,0.938-0.411,0.938-0.917V7.247c0-0.506-0.42-0.917-0.938-0.917
				c-0.518,0-0.938,0.411-0.938,0.917v4.176C9.062,11.929,9.482,12.339,10,12.339"/>
			<path id="Fill-3" fill="#BFBFBF" d="M10,12.798c-0.603,0-1.094,0.48-1.094,1.07c0,0.59,0.492,1.069,1.094,1.069
				s1.094-0.479,1.094-1.069C11.094,13.278,10.603,12.798,10,12.798"/>
		</g>
		<polygon id="plus" fill="#3D3D3D" points="99.803,87 98.197,87 98.197,90.197 95,90.197 95,91.803 98.197,91.803 98.197,95 
			99.803,95 99.803,91.803 103,91.803 103,90.197 99.803,90.197 		"/>
		<g id="x-close" transform="translate(96.000000, 56.000000)">
			<polyline id="Green---2" fill="none" stroke="#656565" stroke-width="1.5" points="0.624,6.973 3.973,3.675 0.624,0.376 			"/>
			<polyline id="Green---2-Copy" fill="none" stroke="#656565" stroke-width="1.5" points="3.624,6.973 6.973,3.675 3.624,0.376 			
				"/>
		</g>
		<g id="radio-button-selected" transform="translate(213.000000, 52.000000)">
			<circle id="Oval-27-Copy-4" fill="none" stroke="#868686" cx="7.5" cy="7.5" r="7.5"/>
			<path id="Oval-27-Copy-3" fill="#00D88C" stroke="#00D88C" d="M7.5,12.5c2.761,0,5-2.239,5-5s-2.239-5-5-5s-5,2.239-5,5
				S4.739,12.5,7.5,12.5L7.5,12.5z"/>
		</g>
		<g id="radio-button" transform="translate(172.000000, 52.000000)">
			<circle id="Oval-27-Copy-4_1_" fill="none" stroke="#868686" cx="7.5" cy="7.5" r="7.5"/>
		</g>
		<path id="search" fill="#A5A5A5" d="M265.541,63.125l-2.77-3.188c-0.032-0.037-0.069-0.066-0.104-0.097
			c0.557-0.737,0.916-1.637,0.985-2.627c0.19-2.722-1.861-5.082-4.583-5.272c-2.721-0.19-5.083,1.861-5.272,4.583
			c-0.19,2.722,1.862,5.082,4.583,5.272c0.99,0.069,1.932-0.161,2.74-0.61c0.026,0.04,0.05,0.079,0.081,0.115l2.771,3.188
			c0.189,0.217,0.448,0.337,0.712,0.355c0.266,0.019,0.539-0.064,0.756-0.252C265.871,64.215,265.917,63.559,265.541,63.125
			L265.541,63.125L265.541,63.125z M258.488,60.241c-1.859-0.13-3.266-1.749-3.136-3.608c0.13-1.859,1.748-3.266,3.607-3.136
			c1.858,0.13,3.266,1.749,3.136,3.607C261.966,58.964,260.347,60.371,258.488,60.241L258.488,60.241L258.488,60.241z"/>
		<path id="search-copy" fill="#00D88C" d="M265.541,103.125l-2.77-3.188c-0.032-0.037-0.069-0.066-0.104-0.097
			c0.557-0.737,0.916-1.637,0.985-2.627c0.19-2.722-1.861-5.082-4.583-5.272c-2.721-0.19-5.083,1.862-5.272,4.583
			c-0.19,2.722,1.862,5.082,4.583,5.272c0.99,0.069,1.932-0.161,2.74-0.61c0.026,0.04,0.05,0.079,0.081,0.115l2.771,3.188
			c0.189,0.217,0.448,0.337,0.712,0.355c0.266,0.019,0.539-0.064,0.756-0.252C265.871,104.215,265.917,103.559,265.541,103.125
			L265.541,103.125L265.541,103.125z M258.488,100.241c-1.859-0.13-3.266-1.749-3.136-3.607c0.13-1.859,1.748-3.266,3.607-3.136
			c1.858,0.13,3.266,1.749,3.136,3.607C261.966,98.964,260.347,100.371,258.488,100.241L258.488,100.241L258.488,100.241z"/>
		<polyline id="down-arrow" fill="none" stroke="#656565" stroke-width="1.5" points="137,62 140.298,65.349 143.596,62 		"/>
		<polyline id="down-arrow-copy" fill="none" stroke="#00D88C" stroke-width="1.5" points="137,98 140.298,101.349 143.596,98 		"/>
		<g id="Save-view-button" transform="translate(54.000000, 54.000000)">
			<path id="down-arrow_1_" fill="none" stroke="#A5A5A5" stroke-width="1.5" d="M7.525,7.343L5.462,9.405L3.4,7.343 M5.462,9.405V4
				"/>
			<polygon id="button-bg" fill="none" stroke="#A5A5A5" stroke-width="1.5" points="0,13 0,0 7.6,0 11.4,3.512 11.4,13 			"/>
		</g>
		<path id="dropdown-up-arrow-copy" fill="#00D88C" d="M16.238,69.424l3.01-3.104c0.414-0.427,1.092-0.427,1.504,0l3.01,3.104
			c0.414,0.429,0.274,0.776-0.312,0.776h-6.9C15.964,70.2,15.824,69.853,16.238,69.424L16.238,69.424z"/>
		<path id="dropdown-down-arrow-copy" fill="#FF6565" d="M23.45,51c0.586,0,0.726,0.347,0.312,0.776l-3.01,3.104
			c-0.414,0.427-1.092,0.427-1.504,0l-3.01-3.104C15.824,51.347,15.964,51,16.55,51H23.45"/>
		<g id="Imported-Layers-4">
			<polyline id="Fill-1" fill="#F6F6F6" points="8.129,37.289 8.129,13.5 0,13.62 0,9.477 21.077,9.477 21.077,13.62 12.99,13.5 
				12.99,37.289 8.129,37.289 			"/>
			<polygon id="Fill-2_1_" fill="#F6F6F6" points="16.494,16.888 21.077,16.888 21.077,37.289 16.494,37.289 			"/>
			<path id="Fill-3_1_" fill="#F6F6F6" d="M38.665,20.99c-1.036-0.517-2.191-0.757-3.506-0.757c-4.065,0-6.495,2.872-6.495,6.776
				c0,3.984,2.312,6.894,6.495,6.894c1.396,0,2.47-0.238,3.866-0.879l0.277,3.785c-1.355,0.519-2.908,0.759-4.662,0.759
				c-6.493,0-10.797-4.106-10.797-10.44s4.621-10.518,10.837-10.518c1.634,0,3.068,0.238,4.304,0.677L38.665,20.99"/>
			<path id="Fill-4" fill="#F6F6F6" d="M50.731,31.709c-1.235-1.473-2.708-3.506-3.787-4.94h-0.08v10.52h-4.619V9.477h4.619v16.057
				h0.08c0.958-1.235,2.592-3.148,3.866-4.543l3.823-4.103h5.582l-8.927,9.006l9.96,11.395h-5.895L50.731,31.709"/>
			<path id="Fill-5" fill="#F6F6F6" d="M64.481,28.285c0.12,3.665,2.749,5.856,6.694,5.856c2.35,0,4.184-0.519,5.976-1.593
				l0.159,3.943c-1.831,0.836-4.023,1.274-6.572,1.274c-6.735,0-10.878-4.023-10.878-10.797c0-6.295,4.022-10.559,9.96-10.559
				c5.698,0,8.886,3.345,8.886,10.518c0,0.36-0.041,0.997-0.082,1.357H64.481L64.481,28.285z M74.4,25.017
				c0-3.667-1.872-5.301-4.741-5.301c-2.708,0-4.859,1.833-5.178,5.301H74.4L74.4,25.017z"/>
			<path id="Fill-6" fill="#F6F6F6" d="M85.995,20.553c1.115-2.55,2.948-4.143,5.695-4.143c0.759,0,1.276,0.041,1.876,0.238v4.065
				c-0.48-0.2-1.117-0.279-1.915-0.279c-3.546,0-5.498,2.79-5.498,8.088v8.766h-4.583V22.943c0-2.191-0.041-4.342-0.199-6.056h4.385
				c0.118,0.957,0.159,2.59,0.159,3.665H85.995"/>
			<polyline id="Fill-7" fill="#F6F6F6" points="101.691,37.289 101.691,13.5 93.566,13.62 93.566,9.477 114.641,9.477 
				114.641,13.62 106.552,13.5 106.552,37.289 101.691,37.289 			"/>
			<path id="Fill-8" fill="#F6F6F6" d="M111.885,18.044c2.031-1.115,4.662-1.634,7.053-1.634c6.216,0,8.528,3.307,8.528,8.208
				c0,1.754-0.082,3.984-0.082,5.459v2.148c0,1.954,0.12,3.828,0.279,5.063h-4.022c-0.041-0.32-0.08-1.038-0.08-1.634
				c0-0.519,0.039-1.196,0.08-1.794h-0.08c-1.396,2.391-3.587,3.748-6.935,3.748c-4.143,0-6.971-2.353-6.971-6.216
				c0-4.304,3.785-6.654,10.638-6.654c0.836,0,1.951,0,2.867,0.118c0-3.307-1.672-4.938-4.979-4.938
				c-2.112,0-4.381,0.755-6.096,1.872L111.885,18.044L111.885,18.044z M121.329,27.646c-4.662,0-7.012,1.036-7.012,3.585
				c0,1.915,1.314,2.989,3.504,2.989c3.35,0,5.421-2.031,5.421-6.493C122.764,27.687,122.126,27.646,121.329,27.646L121.329,27.646
				L121.329,27.646z"/>
			<path id="Fill-9" fill="#F6F6F6" d="M149.833,16.778v19.208c0,5.537-2.869,10.04-10.359,10.04c-2.828,0-5.26-0.358-7.968-1.355
				l0.397-4.145c2.549,1.396,4.863,1.915,7.292,1.915c4.025,0,6.216-2.312,6.216-6.654c0-0.68-0.041-1.557,0.08-2.313h-0.08
				c-1.237,2.073-3.388,3.708-6.615,3.708c-5.339,0-8.924-4.066-8.924-10.121c0-6.375,3.665-10.758,9.244-10.758
				c3.068,0,5.26,1.396,6.495,3.624h0.079c-0.12-1.273-0.079-2.069-0.079-3.148H149.833L149.833,16.778z M134.653,26.86
				c0,3.945,2.031,6.694,5.219,6.694s5.459-2.91,5.459-6.773c0-3.866-2.271-6.855-5.498-6.855
				C136.804,19.926,134.653,22.915,134.653,26.86L134.653,26.86L134.653,26.86z"/>
			<path id="Fill-10" fill="#F6F6F6" d="M153.269,32.944c1.754,0.916,3.626,1.355,5.339,1.355c2.033,0,3.587-0.877,3.587-2.509
				c0-1.476-0.917-2.234-4.106-3.506c-3.663-1.477-5.059-3.03-5.059-5.779c0-3.825,3.028-6.096,7.61-6.096
				c1.952,0,3.667,0.279,5.14,0.877l-0.399,3.585c-1.593-0.757-3.066-1.074-4.621-1.074c-1.874,0-3.229,0.795-3.229,2.35
				c0,1.514,0.997,2.071,3.746,3.148c3.705,1.432,5.498,3.066,5.498,6.135c0,4.145-3.268,6.334-7.889,6.334
				c-2.11,0-4.104-0.356-5.897-1.034L153.269,32.944"/>
			<path id="Fill-11" fill="#00D88C" d="M182.377,21.279L162.647,1.547c-0.218-0.215-0.285-0.547-0.165-0.832
				c0.116-0.285,0.395-0.472,0.702-0.472h14.799c3.142,0,5.699,2.556,5.699,5.695v14.799c0,0.309-0.185,0.588-0.47,0.706
				C182.928,21.562,182.599,21.495,182.377,21.279z"/>
			<path id="Fill-12" fill="#F6F6F6" d="M179.813,35.246h-0.755v-0.254h1.769v0.254h-0.753v2.043h-0.261V35.246L179.813,35.246z
				 M181.35,34.992h0.276l0.894,1.365l0.895-1.365h0.269v2.297h-0.26v-1.833l-0.887,1.327h-0.037l-0.889-1.327v1.833h-0.26V34.992
				L181.35,34.992z"/>
		</g>
		<g id="Rectangle-1-_x2B_-Path-1" transform="translate(174.000000, 93.000000)">
			<path id="Rectangle-1" fill="#F5F5F5" stroke="#CCCCCC" d="M2,0h8c1.104,0,2,0.896,2,2v8c0,1.104-0.896,2-2,2H2
				c-1.104,0-2-0.896-2-2V2C0,0.896,0.896,0,2,0z"/>
			<polygon id="Path-1" fill="#D8D8D8" points="2.249,6.632 5.602,9.167 9.937,3.892 8.505,2.747 5.438,7.041 3.271,5.528 			"/>
		</g>
		<g id="Rectangle-1-_x2B_-Path-1-Copy" transform="translate(214.000000, 93.000000)">
			<path id="Rectangle-1_1_" fill="#F5F5F5" stroke="#00D98A" d="M2,0h8c1.104,0,2,0.896,2,2v8c0,1.104-0.896,2-2,2H2
				c-1.104,0-2-0.896-2-2V2C0,0.896,0.896,0,2,0z"/>
			<polygon id="Path-1_1_" fill="#00D98A" points="2.249,6.632 5.602,9.167 9.937,3.892 8.505,2.747 5.438,7.041 3.271,5.528 			"/>
		</g>
		<path id="Imported-Layers" fill="none" stroke="#5E5F5C" stroke-width="1.5" stroke-linejoin="round" d="M56,94.597l3.349-3.298
			L56,88 M62.349,94.597L59,91.299L62.349,88"/>
		<rect id="Rectangle-5" x="95" y="108" fill="#3D3D3D" width="8" height="2"/>
		<g id="Line-_x2B_-Line" transform="translate(10.000000, 130.000000)">
			<path id="Line" fill="none" stroke="#FFFFFF" stroke-linecap="square" d="M1,0l21.213,21.213"/>
			<path id="Line_1_" fill="none" stroke="#FFFFFF" stroke-linecap="square" d="M21,0L0.287,21.713"/>
		</g>
		<g id="Line-_x2B_-Line-Copy" transform="translate(49.000000, 130.000000)">
			<path id="Line_2_" fill="none" stroke="#3D3D3D" stroke-linecap="square" d="M1,0l21.213,21.213"/>
			<path id="Line_3_" fill="none" stroke="#3D3D3D" stroke-linecap="square" d="M21,0L0.287,21.713"/>
		</g>
		<path id="Imported-Layers_1_" fill="none" stroke="#FFFFFF" stroke-width="1.5" stroke-linejoin="round" d="M56,111.597
			l3.349-3.298L56,105 M62.349,111.597L59,108.299L62.349,105"/>
		<polygon id="Polygon-1" fill="#00D88C" points="101.869,137.076 104.08,138.488 97.685,144.544 93.357,141.394 97.685,142.27 		
			"/>
	</g>
</g>
</svg>
